<svg width="615" height="101" viewBox="0 0 615 101" fill="none" xmlns="http://www.w3.org/2000/svg">
<path d="M75.5 96V29.5C75.5 26.7386 73.2614 24.5 70.5 24.5H12.6835C8.21323 24.5 5.9896 29.9183 9.17118 33.0586L35.4181 58.9646C37.3925 60.9134 37.4029 64.0971 35.4413 66.0587L9.03553 92.4645C5.88571 95.6143 8.11654 101 12.5711 101H70.5C73.2614 101 75.5 98.7614 75.5 96Z" fill="#035B21"/>
<path d="M540 95.5V29C540 26.2386 542.239 24 545 24H602.816C607.287 24 609.51 29.4183 606.329 32.5586L580.082 58.4646C578.107 60.4134 578.097 63.5971 580.059 65.5587L606.464 91.9645C609.614 95.1143 607.383 100.5 602.929 100.5H545C542.239 100.5 540 98.2614 540 95.5Z" fill="#035B21"/>
<rect x="55" width="506" height="87" rx="5" fill="#06802F"/>
</svg>
